<?xml version="1.0" encoding="utf-8"?>
<!-- Generator: Adobe Illustrator 23.0.3, SVG Export Plug-In . SVG Version: 6.00 Build 0)  -->
<svg version="1.1" xmlns="http://www.w3.org/2000/svg" xmlns:xlink="http://www.w3.org/1999/xlink" x="0px" y="0px"
	 viewBox="0 0 1024 256" style="enable-background:new 0 0 1024 256;" xml:space="preserve">
<style type="text/css">
	.st0{fill:#7D83BF;}
	.st1{fill:#A3D187;}
	.st2{fill:#DAAE57;}
	.st3{fill:#777B7D;}
	.st4{fill:#94A095;}
	.st5{fill:#AAACAC;}
	.st6{fill:#464749;}
	.st7{fill:#717577;}
	.st8{fill:#F3F2F1;}
	.st9{fill:#FFFFFF;}
	.st10{fill:#7C8081;}
	.st11{fill:#292C42;}
	.st12{fill:#424447;}
	.st13{fill:#F07822;}
	.st14{opacity:0.17;}
	.st15{fill:#2B2E31;}
	.st16{fill:#E9E8E7;}
	.st17{fill:#3A3D54;}
	.st18{fill:#5361A8;}
	.st19{fill:#2B2F3C;}
	.st20{fill:#4D4F8A;}
	.st21{opacity:0.1;enable-background:new    ;}
	.st22{fill:#F5AEB2;}
	.st23{fill:#4C4E61;}
	.st24{fill:#3C3D59;}
	.st25{fill:#F6A8AE;}
	.st26{fill:#292D43;}
</style>
<g id="Calque_1">
	<rect class="st0" width="1024" height="256"/>
	<g>
		<path class="st1" d="M508.84,84.72C621.14,84.67,925.3,169,985.3,255s-276.63,78.2-276.63,78.2l-199.83-0.3V84.72"/>
		<path class="st2" d="M512.46,84.72C400.15,84.67,96,169,36,255s276.63,78.2,276.63,78.2l199.83-0.3V84.72"/>
		<path class="st3" d="M515.78,84.98c-1.11,0-2.21-0.01-3.32-0.01c-1.11,0-2.21,0-3.32,0.01c-22.93,17.13-44.84,35.62-65.47,55.47
			c-29.42,28.32-56.22,59.39-79.63,92.86c-24.36,34.84-44.99,72.28-61.02,111.66c3.18,7.67,6.36,15.35,9.54,23.02
			c48.3-19.95,99.49-32.68,151.54-37.52c16.08-1.49,32.21-2.23,48.36-2.24c52.03,0.05,103.96,7.81,153.68,23.12
			c15.65,4.82,31.07,10.39,46.21,16.64c3.18-7.67,6.36-15.35,9.54-23.02c-9.4-23.11-20.38-45.56-32.78-67.2
			c-19.73-34.41-43.01-66.75-69.08-96.62C588.87,145.45,553.73,113.33,515.78,84.98z"/>
		<path class="st4" d="M233,255c27.67-25.8,81.21-71.12,112.81-91.91c29.34-19.3,60.16-36.35,92.07-51.03
			c22.04-10.15,44.6-19.15,67.54-27.05c1.11-0.01,2.23-0.02,3.34-0.02c-23.06,12.73-45.42,26.71-66.89,41.97
			c-30.65,21.77-59.49,46.11-85.94,72.83c-27.88,28.16-53.06,58.97-74.91,92.03C272.91,272.24,241.11,274.57,233,255z"/>
		<path class="st5" d="M281.02,291.82c21.85-33.06,47.03-63.87,74.91-92.03c26.45-26.72,55.29-51.06,85.94-72.83
			c21.47-15.26,43.84-29.24,66.89-41.97c-22.9,13.77-45.03,28.81-66.2,45.13c-30.47,23.5-58.93,49.64-84.74,78.19
			c-26.93,29.79-50.92,62.22-71.29,96.84C284.7,300.7,282.86,296.26,281.02,291.82z"/>
		<path class="st6" d="M286.54,305.14c20.37-34.62,44.36-67.04,71.29-96.84c25.81-28.55,54.27-54.69,84.74-78.19
			c21.16-16.32,43.3-31.36,66.2-45.13c-22.99,14.94-45.12,31.19-66.17,48.76c-30.05,25.09-57.9,52.83-82.87,82.99
			c-26,31.41-48.82,65.43-67.73,101.57C290.17,313.92,288.35,309.53,286.54,305.14z"/>
		<path class="st7" d="M291.99,318.31c18.9-36.14,41.73-70.16,67.73-101.57c24.97-30.16,52.82-57.91,82.87-82.99
			c21.05-17.57,43.18-33.82,66.17-48.76c-22.97,16.17-44.99,33.68-65.81,52.54c-29.58,26.79-56.76,56.27-80.79,88.15
			c-25.13,33.33-46.77,69.28-64.11,107.25C296.03,328.06,294.01,323.19,291.99,318.31z"/>
		<path class="st8" d="M298.05,332.93c17.34-37.98,38.98-73.92,64.11-107.25c24.03-31.88,51.21-61.36,80.79-88.15
			c20.82-18.86,42.84-36.37,65.81-52.54c0.16,0,0.23,0,0.39,0c-22.93,17.13-44.84,35.62-65.47,55.47
			c-29.42,28.32-56.22,59.39-79.63,92.86c-24.36,34.84-44.99,72.28-61.02,111.66C301.37,340.96,299.71,336.95,298.05,332.93z"/>
		<polygon class="st9" points="653.75,182.99 654,185.57 656.38,185.88 654,186.09 653.75,188.9 653.4,186.1 651.13,185.87 
			653.43,185.58 		"/>
		<polygon class="st9" points="623.98,142.97 624.32,146.4 627.48,146.82 624.32,147.1 623.98,150.84 623.51,147.11 620.5,146.81 
			623.55,146.42 		"/>
		<polygon class="st9" points="590.08,134.99 590.3,136.87 592.4,137.1 590.3,137.25 590.08,139.3 589.76,137.25 587.76,137.09 
			589.79,136.88 		"/>
		<g>
			<path class="st10" d="M324.56,199.05c0,0,10.23,4.01,18.62,0.5c0,0,2.89-0.5,1.67-1.88c-1.22-1.38-1.61-0.75-1.61-0.75
				s-0.17-3.44-2.06-3.7c-1.89-0.25-5.61-0.31-8,1.13c0,0-2.5-0.94-4.95,0.75c0,0-4.39,0.38-3.67,3.63"/>
			<path class="st10" d="M345.63,195.1c0,0,6.14,4.01,11.17,0.5c0,0,1.73-0.5,1-1.88c-0.73-1.38-0.97-0.75-0.97-0.75
				s-0.1-3.44-1.23-3.7c-1.13-0.25-3.37-0.31-4.8,1.13c0,0-1.5-0.94-2.97,0.75c0,0-2.63,0.38-2.2,3.63"/>
			<path class="st10" d="M327.11,192.53c0,0,3.47,2.28,6.32,0.29c0,0,0.98-0.29,0.57-1.07c-0.42-0.78-0.55-0.43-0.55-0.43
				s-0.06-1.96-0.7-2.1c-0.64-0.14-1.91-0.18-2.72,0.64c0,0-0.85-0.53-1.68,0.43c0,0-1.49,0.21-1.25,2.07"/>
		</g>
		<g>
			<path class="st11" d="M404.41,140.17c0,0-3.49-1.4-6.28,1.4s-7.85,4.01-7.85,4.01l-0.52,3.84l4.19,1.92h8.55l4.97-4.97
				L404.41,140.17z"/>
			<polygon class="st12" points="404.41,140.17 404.41,142.98 406.56,147.28 407.47,146.37 			"/>
			<path class="st12" d="M404.41,140.17c0,0-3.49-1.39-6.28,1.4c-2.79,2.79-6.55,3.49-7.85,4.01V148c0,0,7.03-2.59,8.97-4.94
				c1.94-2.36,4.52-1.36,5.16-0.08V140.17z"/>
			<polygon class="st12" points="390.28,148 390.04,149.55 389.76,149.42 390.28,145.58 			"/>
		</g>
		<g>
			<polygon class="st13" points="381.69,156.01 390.89,157.25 396.4,153.14 388.74,151.97 			"/>
			<path class="st13" d="M392.7,154.61c0,0-3.51,2.03-6.34,0l2.49-14.3c0,0,0.57,0.31,1.4,0L392.7,154.61z"/>
			<path class="st14" d="M392.7,154.61l-2.35,9.3c0,0-0.63-0.12-1.27,0l-2.71-9.3C386.37,154.61,388.43,156.34,392.7,154.61z"/>
			<path class="st15" d="M390.26,140.31c0,0-0.67,0.31-1.4,0C388.86,140.31,389.48,140,390.26,140.31z"/>
			<path class="st8" d="M390.75,143.2c0,0-1.3,0.44-2.41,0l-0.19,1.15c0,0,0.89,0.55,2.8,0L390.75,143.2z"/>
			<path class="st8" d="M391.37,146.81c0,0-1.81,0.89-3.64,0l-0.22,1.24c0,0,1.45,0.72,4.07,0L391.37,146.81z"/>
			<path class="st8" d="M392,150.48l0.23,1.33c0,0-2.4,1.15-5.36,0l0.22-1.31C387.08,150.5,389.33,151.29,392,150.48z"/>
		</g>
		<polygon class="st11" points="450.18,121.14 441.64,119.23 442.86,118.28 437.86,118.22 434.06,115.7 438.13,117.56 
			443.83,117.53 442.78,118.89 451.28,120.38 		"/>
		<path class="st4" d="M801,262c-27.67-25.8-90.35-78.11-121.95-98.91c-29.34-19.3-60.16-36.35-92.07-51.03
			c-22.04-10.15-44.6-19.15-67.54-27.05c-1.11-0.01-2.23-0.02-3.34-0.02c23.06,12.73,45.42,26.71,66.89,41.97
			c30.65,21.77,59.49,46.11,85.94,72.83c27.88,28.16,53.06,58.97,74.91,92.03C751.95,272.25,792.89,281.57,801,262z"/>
		<path class="st5" d="M743.85,291.82c-21.85-33.06-47.03-63.87-74.91-92.03c-26.45-26.72-55.29-51.06-85.94-72.83
			c-21.47-15.26-43.84-29.24-66.89-41.97c22.9,13.77,45.03,28.81,66.2,45.13c30.47,23.5,58.93,49.64,84.74,78.19
			c26.93,29.79,50.92,62.22,71.29,96.84C740.17,300.7,742.01,296.26,743.85,291.82z"/>
		<path class="st6" d="M738.33,305.15c-20.37-34.62-44.36-67.04-71.29-96.84c-25.81-28.55-54.27-54.69-84.74-78.19
			c-21.16-16.32-43.3-31.36-66.2-45.13c22.99,14.94,45.12,31.19,66.17,48.76c30.05,25.09,57.9,52.83,82.87,82.99
			c26,31.41,48.82,65.43,67.73,101.57C734.69,313.93,736.51,309.54,738.33,305.15z"/>
		<path class="st7" d="M732.87,318.32c-18.9-36.14-41.73-70.16-67.73-101.57c-24.97-30.16-52.82-57.91-82.87-82.99
			c-21.05-17.57-43.18-33.82-66.17-48.76c22.97,16.17,44.99,33.68,65.81,52.54c29.58,26.79,56.76,56.27,80.79,88.15
			c25.13,33.33,46.77,69.28,64.11,107.25C728.83,328.06,730.85,323.19,732.87,318.32z"/>
		<path class="st8" d="M726.82,332.93c-17.34-37.98-38.98-73.92-64.11-107.25c-24.03-31.88-51.21-61.36-80.79-88.15
			c-20.82-18.86-42.84-36.37-65.81-52.54c-0.16,0-0.23,0-0.39,0c22.93,17.13,44.84,35.62,65.47,55.47
			c29.42,28.32,56.22,59.39,79.63,92.86c24.36,34.84,44.99,72.28,61.02,111.66C723.49,340.96,725.15,336.95,726.82,332.93z"/>
		<g>
			<path class="st16" d="M679.87,74.84c0,20.47-12.17,27.62-27.19,27.62c-15.01,0-27.19-7.15-27.19-27.62s27.19-46.52,27.19-46.52
				S679.87,54.37,679.87,74.84z"/>
			<polygon class="st17" points="651.7,99.33 651.97,82.2 663.56,61 652.02,79.51 652.14,71.8 660.13,56.47 652.18,69.76 
				652.18,69.76 652.4,55.91 660.95,43.7 652.44,53.73 652.58,28.32 651.69,61.96 651.77,60.57 643.07,47.26 651.63,63.23 
				650.82,78.71 650.79,78.3 640.77,64.29 650.76,79.75 650.66,81.68 650.64,81.71 650.65,81.87 648.6,121.13 651.34,121.13 
				651.67,100.85 661.64,85.44 			"/>
		</g>
		<g>
			<path class="st16" d="M629.56,65.59c0,16.21-9.64,21.87-21.52,21.87c-11.89,0-21.52-5.66-21.52-21.87s21.52-36.83,21.52-36.83
				S629.56,49.38,629.56,65.59z"/>
			<polygon class="st17" points="607.25,84.98 607.47,71.41 616.65,54.63 607.51,69.29 607.61,63.19 613.93,51.04 607.63,61.57 
				607.63,61.57 607.81,50.6 614.58,40.93 607.84,48.88 607.95,28.76 607.25,55.39 607.31,54.29 600.43,43.76 607.2,56.4 
				606.56,68.65 606.54,68.33 598.6,57.24 606.51,69.48 606.43,71.01 606.42,71.03 606.43,71.16 604.8,102.24 606.97,102.24 
				607.23,86.19 615.13,73.98 			"/>
		</g>
		<g>
			<path class="st16" d="M740.39,89.43c0,26.7-15.87,36.02-35.45,36.02s-35.45-9.32-35.45-36.02s35.45-60.67,35.45-60.67
				S740.39,62.73,740.39,89.43z"/>
			<polygon class="st17" points="703.65,121.37 704.01,99.02 719.12,71.37 704.07,95.51 704.23,85.47 714.64,65.47 704.27,82.81 
				704.27,82.81 704.57,64.74 715.72,48.81 704.61,61.89 704.8,28.76 703.64,72.62 703.74,70.82 692.4,53.46 703.56,74.29 
				702.5,94.47 702.47,93.94 689.4,75.67 702.43,95.83 702.3,98.35 702.27,98.39 702.28,98.6 699.6,149.8 703.18,149.8 
				703.61,123.35 716.61,103.25 			"/>
		</g>
		<g>
			<path class="st18" d="M639.37,154.64c-0.28-0.12-0.49-0.37-0.57-0.66c-0.37-1.31-1.27-5,0.2-5c0.23,0,0.47,0.01,0.7,0.04
				c2.55,0.35,4.7,2.1,5.56,4.53c0.11,0.31,0.2,0.64,0.26,0.96c0.08,0.47-0.23,0.92-0.7,1.01c-0.06,0.01-0.12,0.01-0.18,0.01
				C643.35,155.5,641.01,155.33,639.37,154.64z"/>
			<polygon class="st19" points="638.11,154.04 645.79,155.07 656.65,158.57 654.33,160.47 639.24,155.6 			"/>
			<path class="st20" d="M668.45,78.83c0.95-0.15,1.88,0.6,2.81,1.01c1.22,0.53,2.61,0.48,3.86,0.92c1.14,0.41,2.09,1.21,2.68,2.27
				c0.48,0.91,0.59,1.97,0.3,2.96c-0.16,0.59-0.48,1.13-0.93,1.54c-0.93,0.81-2.52,1.05-3.98,0.7c-1.44-0.35-2.72-1.17-3.64-2.33
				c-0.73-0.94-1.11-2-1.67-2.99c-0.39-0.71-1.66-1.86-1.45-2.55C666.57,79.89,667.85,78.92,668.45,78.83z"/>
			<path class="st21" d="M668.45,78.83c0.95-0.15,1.88,0.6,2.81,1.01c1.22,0.53,2.61,0.48,3.86,0.92c1.14,0.41,2.09,1.21,2.68,2.27
				c0.48,0.91,0.59,1.97,0.3,2.96c-0.16,0.59-0.48,1.13-0.93,1.54c-0.93,0.81-2.52,1.05-3.98,0.7c-1.44-0.35-2.72-1.17-3.64-2.33
				c-0.73-0.94-1.11-2-1.67-2.99c-0.39-0.71-1.66-1.86-1.45-2.55C666.57,79.89,667.85,78.92,668.45,78.83z"/>
			<path class="st20" d="M648.65,150.56l-0.86,2.27c1.12,0.27,2.22,0.6,3.3,0.99c0.2-0.32,0.23-0.71,0.27-1.09
				c0.09-0.72,0.26-1.43,0.53-2.11c0.07-0.19-1.9-1.04-2.11-1.11c-0.25-0.09-0.5-0.21-0.7,0.01
				C648.86,149.78,648.77,150.25,648.65,150.56z"/>
			<path class="st20" d="M645.72,150.44l-0.85,2.27c1.11,0.27,2.21,0.6,3.29,0.99c0.2-0.32,0.23-0.71,0.27-1.09
				c0.09-0.72,0.27-1.43,0.53-2.11c0.07-0.19-1.9-1.04-2.11-1.11c-0.25-0.09-0.5-0.21-0.7,0.01
				C645.93,149.66,645.84,150.13,645.72,150.44z"/>
			<path class="st20" d="M651.08,151.26c-0.17,0.01-0.35,0.05-0.5,0.13l-1.05,0.42c-0.35,0.14-0.8,0.27-1.08,0.02
				c-0.11-0.13-0.21-0.28-0.29-0.43c-0.09-0.15-0.26-0.24-0.44-0.2c-0.1,0.05-0.18,0.14-0.22,0.24c-0.74,1.38-1.34,2.82-1.79,4.32
				c0.22,0.18,0.48,0.33,0.75,0.44c0.03,0.01,0.06,0.02,0.09,0.01c0.06-0.02,0.06-0.11,0.07-0.17c0.05-0.22,0.38-0.25,0.55-0.1
				c0.14,0.17,0.22,0.39,0.22,0.62c0,0.09,0.03,0.18,0.07,0.26c0.05,0.06,0.11,0.1,0.17,0.13c0.35,0.19,0.72,0.34,1.1,0.47
				c1.74,0.63,3.5,1.19,5.27,1.7c0.18,0.06,0.37,0.1,0.57,0.1c0.38-0.03,0.72-0.25,0.89-0.59c0.16-0.34,0.19-0.73,0.08-1.09
				c-0.08-0.27-0.22-0.51-0.41-0.72c-0.14-0.15-0.3-0.29-0.47-0.41l-0.73-0.56c-0.53-0.41-1.08-0.84-1.38-1.44
				c-0.16-0.35-0.27-0.73-0.34-1.11C652.07,152.67,651.99,151.28,651.08,151.26z"/>
			<path class="st21" d="M651.08,151.26c-0.17,0.01-0.35,0.05-0.5,0.13l-1.05,0.42c-0.35,0.14-0.8,0.27-1.08,0.02
				c-0.11-0.13-0.21-0.28-0.29-0.43c-0.09-0.15-0.26-0.24-0.44-0.2c-0.1,0.05-0.18,0.14-0.22,0.24c-0.74,1.38-1.34,2.82-1.79,4.32
				c0.22,0.18,0.48,0.33,0.75,0.44c0.03,0.01,0.06,0.02,0.09,0.01c0.06-0.02,0.06-0.11,0.07-0.17c0.05-0.22,0.38-0.25,0.55-0.1
				c0.14,0.17,0.22,0.39,0.22,0.62c0,0.09,0.03,0.18,0.07,0.26c0.05,0.06,0.11,0.1,0.17,0.13c0.35,0.19,0.72,0.34,1.1,0.47
				c1.74,0.63,3.5,1.19,5.27,1.7c0.18,0.06,0.37,0.1,0.57,0.1c0.38-0.03,0.72-0.25,0.89-0.59c0.16-0.34,0.19-0.73,0.08-1.09
				c-0.08-0.27-0.22-0.51-0.41-0.72c-0.14-0.15-0.3-0.29-0.47-0.41l-0.73-0.56c-0.53-0.41-1.08-0.84-1.38-1.44
				c-0.16-0.35-0.27-0.73-0.34-1.11C652.07,152.67,651.99,151.28,651.08,151.26z"/>
			<path class="st19" d="M670.97,116.52c-0.15,0.47-0.31,0.94-0.49,1.4c-1.01,2.86-2.2,5.65-3.55,8.37
				c-0.31,0.61-0.62,1.21-0.98,1.79c-0.52,0.83-1.13,1.59-1.53,2.48c-0.56,1.27-0.65,2.75-1.36,3.94c-0.37,0.61-0.88,1.12-1.28,1.71
				c-0.24,0.35-0.45,0.72-0.64,1.1c-0.46,0.87-0.93,1.74-1.39,2.6c-0.05,0.09-0.1,0.18-0.14,0.27c-0.56,1.02-1.26,1.95-2.09,2.77
				c-0.48,0.52-0.91,1.09-1.27,1.7c-0.65,1-1.29,1.99-1.94,2.99c-0.87,1.35-1.77,2.76-1.95,4.36c-0.59-0.23-1.16-0.51-1.7-0.84
				c-0.69-0.42-1.33-0.92-1.91-1.49c0.67-2.59,1.6-5.11,2.53-7.62c0.59-1.59,1.19-3.18,1.97-4.69c0.85-1.64,1.79-3.17,2.7-4.78
				c1.36-2.41,2.73-4.85,3.53-7.5c1.04-3.43,2.25-6.88,4.73-9.47c0.26-0.32,0.6-0.56,0.99-0.71c0.36-0.08,0.73-0.09,1.1-0.01
				c1.25,0.18,2.48,0.48,3.67,0.9C670.36,115.95,670.7,116.2,670.97,116.52z"/>
			<path class="st21" d="M670.97,116.52c-0.15,0.47-3.6-1.04-3.77-0.58c-4.22-1.92-2.49-0.24-2.73-0.17
				c-0.51,0.16,1.67,0.21,1.16,0.38c-0.44,0.14-1.32,0.95-1.77,1.07c-1.05,0.29,1.28,2.97,0.37,3.58c-0.82,0.55-1.28,1.5-1.51,2.46
				c-0.22,0.96-0.24,1.95-0.4,2.93c-0.3,1.85-1.07,3.58-2.23,5.05c-0.7,0.88-1.52,1.64-2.31,2.43c-0.86,0.88-2.17,1.61-2.43,2.81
				c-0.58,2.71-1.89,5.21-2.87,7.81c-0.37,0.99-0.7,2.02-0.74,3.08c-0.01,0.4,0.02,0.81-0.03,1.21c-0.09,0.94-0.53,1.8-1.07,2.58
				c-0.69-0.42-1.33-0.92-1.91-1.49c0.67-2.59,1.6-5.11,2.53-7.62c0.59-1.59,1.19-3.18,1.97-4.69c0.85-1.64,1.79-3.17,2.7-4.78
				c1.36-2.41,2.73-4.85,3.53-7.5c1.04-3.43,2.25-6.88,4.73-9.47c0.26-0.32,0.6-0.56,0.99-0.71c0.36-0.08,0.73-0.09,1.1-0.01
				c1.25,0.18,2.48,0.48,3.67,0.9C670.36,115.96,670.7,116.2,670.97,116.52z"/>
			<path class="st19" d="M671.99,114.26c-0.27,0.84-0.4,2.84-1.21,3.17c-0.54,0.22-1.14,0.27-1.7,0.45
				c-0.51,0.16-0.98,0.41-1.49,0.58c-0.44,0.14-0.91,0.2-1.36,0.32c-1.05,0.29-1.77,1.2-2.68,1.8c-0.82,0.55-1.28,1.51-1.5,2.46
				c-0.22,0.96-0.24,1.95-0.4,2.93c-0.3,1.85-1.07,3.58-2.23,5.05c-0.7,0.88-1.52,1.64-2.31,2.43c-0.86,0.88-2.17,1.6-2.43,2.81
				c-0.58,2.71-1.9,5.21-2.87,7.81c-0.37,0.99-0.7,2.02-0.74,3.08c-0.01,0.4,0.02,0.81-0.03,1.21c-0.1,1.11-0.71,2.1-1.37,3
				c-1.1-0.58-2.21-1.16-3.41-1.45c-1.06-0.26-2.18-0.29-3.17-0.74c0.77-2.82,1.92-5.51,3.06-8.2c0.23-0.55,0.47-1.1,0.7-1.65
				c0.9-2.1,1.79-4.21,2.61-6.35c0.21-0.54,0.2-1.18,0.53-1.66c0.68-1.01,1.36-2.01,2.03-3c0.35-0.49,0.66-1.02,0.93-1.56
				c0.53-1.13,0.67-2.4,0.81-3.64c0.18-1.7,0.37-3.4,0.55-5.1c0.06-0.56,0.12-1.13,0.14-1.7c0-0.38,0.02-0.76,0.06-1.14
				c0.1-0.52,0.23-1.03,0.39-1.54c0.23-0.88,0.3-1.8,0.52-2.69c0.1-0.43,0.25-0.84,0.44-1.24c0.21-0.43,0.51-0.81,0.87-1.11
				c2.74-0.19,5.48-0.09,8.2,0.28c0.64,0.07,1.27,0.2,1.88,0.37c0.69,0.24,1.36,0.54,1.99,0.9c0.9,0.47,1.82,0.95,2.56,1.66
				c0.36,0.33,0.66,0.73,0.88,1.16c0.3,0.59,0.35-0.53,0.3,0.13C672.52,113.32,672.05,114.05,671.99,114.26z"/>
			<path class="st20" d="M648.15,151.13c-0.17,0.01-0.35,0.05-0.5,0.13l-1.05,0.42c-0.35,0.14-0.8,0.27-1.08,0.02
				c-0.11-0.13-0.21-0.27-0.29-0.43c-0.08-0.16-0.26-0.24-0.44-0.2c-0.1,0.05-0.18,0.14-0.22,0.24c-0.74,1.38-1.34,2.82-1.79,4.32
				c0.22,0.18,0.47,0.33,0.74,0.44c0.03,0.01,0.06,0.02,0.09,0.01c0.06-0.02,0.06-0.11,0.07-0.17c0.05-0.22,0.38-0.25,0.54-0.1
				c0.14,0.17,0.22,0.39,0.22,0.62c0,0.09,0.03,0.18,0.07,0.26c0.05,0.06,0.11,0.1,0.17,0.13c0.35,0.19,0.72,0.34,1.1,0.47
				c1.74,0.63,3.5,1.2,5.27,1.7c0.18,0.06,0.37,0.1,0.57,0.1c0.38-0.03,0.72-0.26,0.89-0.6c0.16-0.34,0.19-0.73,0.07-1.09
				c-0.08-0.27-0.22-0.51-0.41-0.72c-0.15-0.15-0.3-0.29-0.47-0.41l-0.73-0.56c-0.53-0.41-1.08-0.84-1.38-1.44
				c-0.16-0.35-0.27-0.73-0.34-1.11C649.15,152.55,649.06,151.16,648.15,151.13z"/>
			<path class="st22" d="M677.89,86.63c-0.14,0.24-0.34,0.45-0.57,0.59c-0.52,0.38-1.08,0.78-1.72,0.79
				c-0.35-0.01-0.7-0.09-1.02-0.23c-2.83-1.07-5.22-3.05-6.8-5.62c1.25-0.35,2.2-1.41,2.74-2.6c0.39-0.93,0.64-1.91,0.76-2.91
				c0.04-0.29,0.08-0.59,0.12-0.87c0.07-0.53-0.04-1,0.58-0.96c0.48,0.03,1.06,0.31,1.51,0.49c0.99,0.38,1.94,0.93,2.56,1.81
				c0.17,0.23,0.29,0.49,0.36,0.78c0.14,0.77-0.4,1.46-0.72,2.19c-0.07,0.17-0.13,0.34-0.18,0.51c-0.21,0.86,0.12,1.77,0.6,2.51
				c0.48,0.74,1.09,1.4,1.54,2.15C677.9,85.66,678.1,86.19,677.89,86.63z"/>
			<path class="st21" d="M675.68,80.07c-0.39-0.03-0.77-0.11-1.13-0.23c-1.53-0.49-2.74-1.68-3.27-3.19
				c0.04-0.29,0.08-0.59,0.12-0.87c0.07-0.53-0.04-1,0.58-0.96c0.48,0.03,1.06,0.31,1.51,0.49c0.99,0.38,1.94,0.93,2.56,1.81
				c0.17,0.23,0.29,0.49,0.36,0.78C676.54,78.65,676,79.34,675.68,80.07z"/>
			<circle class="st22" cx="676.19" cy="74.73" r="5.13"/>
			<path class="st21" d="M672.54,113.56c-0.05,0.06-0.65,1.1-0.7,1.16c-1.52-0.85-2.52-1.2-4.18-1.71c-0.42-0.14-0.85-0.24-1.28-0.3
				c-0.37-0.04-0.74-0.04-1.11-0.1c-1.98-0.32-3.28-2.36-5.23-2.83c-0.65-0.16-1.33-0.12-2-0.1c-0.74,0.04-1.46,0.02-2.17,0.03
				c0.21-0.43,0.51-0.81,0.87-1.11c2.74-0.19,5.48-0.09,8.2,0.28c0.64,0.07,1.27,0.19,1.88,0.37c0.69,0.24,1.36,0.54,1.99,0.9
				c0.9,0.47,1.82,0.95,2.56,1.66c0.36,0.33,0.66,0.73,0.88,1.16C672.54,113.56,672.61,112.91,672.54,113.56z"/>
			<path class="st20" d="M671.35,84.18c0.06-0.53-0.15-1.03-0.37-1.51c-0.4-0.91-0.83-1.8-1.29-2.68c-0.14-0.31-0.33-0.59-0.57-0.84
				c-0.24-0.25-0.59-0.35-0.93-0.29c-0.31,0.08-0.53,0.33-0.8,0.49c-0.59,0.34-1.39,0.21-1.94,0.62c-0.13,0.12-0.27,0.24-0.42,0.34
				c-0.2,0.08-0.42,0.12-0.64,0.09l-2.55-0.05c-0.3-0.01-0.64,0-0.85,0.21c-0.1,0.12-0.18,0.25-0.24,0.39
				c-0.52,0.99-1.69,1.43-2.73,1.85c-0.36,0.15-0.73,0.32-0.97,0.63c-0.23,0.31-0.29,0.7-0.33,1.08c-0.11,0.97-0.13,1.96,0.16,2.89
				c0.18,0.63,0.5,1.22,0.61,1.86c0.07,0.6,0.05,1.22-0.08,1.81c-0.18,1.14-0.45,2.26-0.71,3.38c-0.23,0.99-0.69,2.03-0.71,3.05
				c-0.02,1.24,0.98,2.27,1.18,3.5c0.06,0.51,0.05,1.02-0.03,1.52l-0.33,2.78c-0.03,0.43-0.11,0.85-0.24,1.26
				c-0.32,0.96-1.12,1.73-1.27,2.73c0.98-0.05,1.89,0,2.87-0.05c0.67-0.03,1.35-0.07,2,0.09c1.94,0.47,3.25,2.52,5.23,2.83
				c0.37,0.06,0.74,0.06,1.11,0.1c0.44,0.06,0.86,0.16,1.28,0.3c1.67,0.51,3.28,1.19,4.8,2.04c0.51-0.45,0.78-1.11,0.91-1.77
				s0.12-1.34,0.16-2.02c0.1-1.77,0.52-3.51,1.25-5.13c0.2-0.4,0.37-0.82,0.52-1.24c0.51-1.59,0.03-3.4,0.63-4.96
				c0.59-1.54,2.66-1.84,3.85-2.98c0.26-0.22,0.45-0.51,0.54-0.84c0.07-0.34-0.04-0.71-0.08-1.06c-0.08-0.87,0.32-1.7,0.39-2.57
				c0.02-0.3,0.01-0.61,0.04-0.91c0.09-0.83,0.51-1.62,0.56-2.46c0.04-0.65-0.15-1.29-0.38-1.9c-0.38-1.03-0.89-2.05-1.68-2.8
				c-0.8-0.76-1.93-1.23-3.01-1.03c-0.17,0.03-0.33,0.08-0.47,0.17c-0.14,0.12-0.27,0.26-0.36,0.42c-0.68,0.99-1.48,1.91-2.37,2.72
				c-0.45-0.07-0.85-0.35-1.08-0.74C671.78,85.09,671.3,84.63,671.35,84.18z"/>
			<path class="st19" d="M673.37,75.43c0.16-0.19,0.28-0.41,0.34-0.65c0.06-0.24,0.2-0.46,0.4-0.61c0.27-0.17,0.63-0.12,0.89-0.3
				c0.3-0.2,0.35-0.6,0.52-0.92c0.29-0.52,0.9-0.77,1.47-0.62c0.41,0.12,0.73,0.44,1.11,0.65c0.49,0.27,1.06,0.35,1.61,0.43
				c0.41,0.06,0.87,0.11,1.22-0.12c0.22-0.16,0.39-0.37,0.51-0.61c0.21-0.37,0.42-0.78,0.33-1.2c-0.09-0.41-0.46-0.72-0.58-1.13
				c-0.1-0.36,0.01-0.75-0.1-1.11c-0.16-0.56-0.78-0.85-1.35-0.96c-0.57-0.11-1.18-0.11-1.69-0.4c-0.56-0.32-0.99-0.98-1.63-0.93
				c-0.47,0.04-0.8,0.46-1.17,0.75c-0.32,0.25-0.71,0.41-1.11,0.46c-0.62,0.09-1.26-0.08-1.87,0.05c-0.56,0.13-1.04,0.49-1.31,1
				c-0.06,0.09-0.08,0.19-0.09,0.3c0.01,0.08,0.03,0.17,0.06,0.25c0.1,0.41-0.18,0.82-0.5,1.09c-0.32,0.28-0.7,0.5-0.89,0.89
				c-0.2,0.38-0.17,0.83-0.08,1.24c0.12,0.4,0.21,0.82,0.27,1.24c0.04,0.49-0.08,0.97-0.04,1.46c0.07,0.77,0.52,1.44,1.2,1.8
				c0.12,0.08,0.27,0.1,0.41,0.07c0.1-0.05,0.19-0.13,0.24-0.23c0.11-0.17,0.2-0.34,0.27-0.53c0.15-0.36,0.26-0.8,0.53-1.08
				C672.69,75.36,673.01,75.78,673.37,75.43z"/>
			<path class="st21" d="M681.76,71.49c-0.09-0.42-0.46-0.72-0.58-1.13c-0.1-0.36,0.01-0.75-0.1-1.11
				c-0.08-0.26-0.25-0.47-0.48-0.62l0,0c0.1,0.36-0.01,0.75,0.1,1.11c0.12,0.41,0.49,0.71,0.58,1.13c0.09,0.42-0.12,0.83-0.33,1.2
				c-0.12,0.24-0.29,0.45-0.51,0.61c-0.35,0.22-0.81,0.17-1.22,0.12c-0.55-0.08-1.12-0.16-1.61-0.43c-0.37-0.21-0.7-0.53-1.11-0.65
				c-0.57-0.15-1.17,0.1-1.46,0.61c-0.17,0.31-0.23,0.72-0.52,0.92c-0.26,0.18-0.62,0.13-0.89,0.3c-0.2,0.15-0.34,0.37-0.4,0.61
				c-0.06,0.24-0.18,0.46-0.34,0.65c-0.36,0.35-0.68-0.08-1.03,0.28c-0.27,0.29-0.38,0.72-0.53,1.08c-0.08,0.18-0.17,0.36-0.27,0.53
				c-0.05,0.1-0.13,0.18-0.24,0.23c-0.14,0.04-0.29,0.01-0.41-0.07c-0.16-0.08-0.31-0.19-0.45-0.31c0.21,0.39,0.54,0.72,0.93,0.92
				c0.12,0.08,0.27,0.1,0.41,0.07c0.1-0.05,0.19-0.13,0.24-0.23c0.11-0.17,0.2-0.34,0.27-0.53c0.15-0.36,0.26-0.8,0.53-1.08
				c0.35-0.36,0.67,0.06,1.03-0.28c0.16-0.19,0.28-0.41,0.34-0.65c0.06-0.24,0.2-0.46,0.4-0.61c0.27-0.17,0.63-0.12,0.89-0.3
				c0.3-0.2,0.35-0.6,0.52-0.92c0.29-0.51,0.9-0.76,1.47-0.61c0.41,0.12,0.73,0.44,1.11,0.65c0.49,0.27,1.06,0.35,1.61,0.43
				c0.41,0.06,0.87,0.11,1.22-0.12c0.22-0.16,0.39-0.37,0.51-0.61C681.64,72.32,681.85,71.91,681.76,71.49z"/>
			<path class="st19" d="M641.77,159.41c-0.54,1.66-2.13,2.64-3.57,2.17c-1.43-0.46-2.16-2.19-1.63-3.85l0.01-0.02
				c0.54-1.64,2.13-2.61,3.56-2.15c0.88,0.28,1.5,1.04,1.71,1.98C642,158.16,641.97,158.8,641.77,159.41z"/>
			<path class="st19" d="M662.08,167.3c-1.03,3.2-3.53,5.27-5.57,4.61c-2.04-0.66-2.86-3.79-1.83-6.99c0.58-1.81,1.63-3.26,2.8-4.05
				c0.91-0.62,1.88-0.85,2.77-0.56c0.12,0.04,0.24,0.09,0.36,0.14c0.7,0.35,1.23,1.02,1.55,1.88c0.05,0.12,0.09,0.24,0.12,0.36
				C662.65,163.98,662.62,165.63,662.08,167.3z"/>
			<polygon class="st19" points="662.02,159.95 658.68,159.23 659.38,155.64 659.43,155.4 660.41,150.35 660.45,150.11 
				665.43,124.52 665.53,123.98 668.5,108.7 668.57,108.34 668.89,106.74 669.09,105.68 671.68,106.52 671.48,107.62 671.45,107.79 
				671.36,108.29 668.23,125.6 668.14,126.06 663.68,150.74 662.71,156.15 			"/>
			<path class="st21" d="M660.25,160.3c0.12,0.04,0.24,0.09,0.36,0.14l-0.11,0.03c-0.74,0.25-1.3,0.88-1.44,1.65l-1.08,5.15
				c-0.01,0.03-0.02,0.05-0.03,0.08c-0.15,0.41-0.6,0.62-1.01,0.47c-0.34-0.12-0.55-0.45-0.52-0.81c0.15-1.21,0.5-3.68,0.99-5.85
				c0.03-0.12,0.05-0.22,0.09-0.32C658.39,160.25,659.36,160.02,660.25,160.3z"/>
			<path class="st21" d="M660.67,162.18l-0.1-0.07c-0.01-0.1-0.01-0.2-0.02-0.29C660.6,161.93,660.64,162.06,660.67,162.18z"/>
			<path class="st23" d="M660.5,158.89c0,0-2.58-1.01-3.26,2c-0.49,2.17-0.84,4.63-0.99,5.84c-0.05,0.42,0.24,0.81,0.66,0.88l0,0
				c0.42,0.07,0.81-0.21,0.9-0.62l1.08-5.15c0.15-0.77,0.7-1.41,1.44-1.66c0.76-0.24,1.6,0,1.67,2.14l0.43,0.28
				C662.44,162.6,664.06,159.65,660.5,158.89z"/>
			<path class="st21" d="M668.23,125.6c-0.14-0.02-0.28-0.05-0.41-0.09l-0.93-0.3c-1.08-0.35-1.72-1.46-1.5-2.57l2.74-13.36
				c0.25-1.21,1.43-1.99,2.64-1.74c0.24,0.05,0.46,0.13,0.67,0.26L668.23,125.6z"/>
			<path class="st21" d="M668.14,126.06c-0.16-0.01-0.32-0.05-0.47-0.1l-0.93-0.3c-0.58-0.19-1.05-0.6-1.31-1.15l0.11-0.55
				l2.97-15.27c0.72-0.82,1.93-1,2.86-0.42l-3.13,17.31L668.14,126.06z"/>
			<path class="st18" d="M668.06,109.51c-0.66,3.21-2.06,10.01-2.74,13.36c-0.23,1.11,0.42,2.22,1.5,2.57l0.92,0.3
				c0.9,0.3,1.9-0.01,2.46-0.78c0.11-0.16,0.2-0.34,0.26-0.52c0.32-0.99,2.15-10.29,2.71-13.16c0.11-0.57,0-1.17-0.33-1.65
				c-0.32-0.48-0.7-0.93-1.12-1.33C670.47,107.12,668.41,107.82,668.06,109.51z"/>
			<path class="st21" d="M641.86,157.53l-0.69-0.25c-0.61-0.23-1.27-0.28-1.91-0.14l-2.58,0.55c-0.03,0.01-0.07,0.01-0.1,0.02
				c0.54-1.64,2.13-2.61,3.56-2.15C641.02,155.84,641.64,156.6,641.86,157.53z"/>
			<polygon class="st21" points="662.63,156.37 659.38,155.64 659.43,155.4 660.41,150.35 663.61,150.97 			"/>
			<path class="st23" d="M659.42,155.4c-1.88,7.58-7.03,5.77-7.03,5.77l-11.14-4.13c-0.61-0.23-1.27-0.27-1.91-0.14l-2.58,0.55
				c-0.48,0.1-0.97-0.1-1.24-0.5l0,0c-0.36-0.54-0.22-1.26,0.3-1.63l1.32-0.93c0.55-0.39,1.26-0.48,1.9-0.23l11.6,4.49
				c4.75,1.63,9.82-8.54,9.82-8.54l0,0l3.23,0.63l-0.98,5.41L659.42,155.4L659.42,155.4z"/>
			<polygon class="st21" points="671.48,107.62 668.89,106.74 669.09,105.68 671.68,106.52 			"/>
			<path class="st19" d="M659.56,101.55l21.68,7.59c0.36,0.13,0.56,0.53,0.44,0.9l0,0c-0.12,0.38-0.53,0.58-0.9,0.46
				c0,0-0.01,0-0.01,0l-21.75-7.35c-0.37-0.13-0.57-0.53-0.45-0.9l0.08-0.24c0.12-0.38,0.53-0.58,0.9-0.46
				C659.54,101.55,659.55,101.55,659.56,101.55z"/>
			<path class="st22" d="M661.69,100.09c0.71,0.4,1.57,0.63,2.06,1.28c0.44,0.58,0.48,1.39,0.29,2.1s-0.6,1.33-0.99,1.94
				c-0.12,0.19-0.32,0.41-0.54,0.35c-0.22-0.06-0.26-0.32-0.4-0.49c-0.3-0.35-0.95-0.18-1.26-0.53c-0.08-0.12-0.15-0.24-0.21-0.37
				c-0.22-0.37-0.64-0.56-1.07-0.49c0.49-0.91,0.16-2.04-0.75-2.54c-0.12-0.06-0.24-0.11-0.37-0.15c-0.3-0.09-0.64-0.11-0.86-0.34
				c-0.34-0.36-0.11-0.98,0.25-1.33c0.51-0.49,0.93-0.99,1.65-0.75C660.32,99.04,660.95,99.68,661.69,100.09z"/>
			<path class="st22" d="M676.31,105.71l-0.53,1.6c-0.19,0.6-0.4,1.24-0.27,1.86c0.07,0.32,0.25,0.66,0.57,0.75
				c0.12,0.04,0.25,0.04,0.36,0.08c0.34,0.12,0.54,0.59,0.9,0.57c0.12-0.01,0.24-0.07,0.36-0.07c0.18,0,0.34,0.16,0.52,0.16
				c0.18,0,0.34-0.16,0.46-0.3c0.59-0.7,1.2-1.48,1.23-2.39c-0.01-0.42-0.09-0.83-0.22-1.23l-0.56-1.93
				c-0.02-0.09-0.06-0.17-0.11-0.24c-0.06-0.06-0.14-0.1-0.23-0.12c-0.53-0.17-1.11-0.08-1.66,0.01
				C676.6,104.56,676.46,105.25,676.31,105.71z"/>
			<path class="st20" d="M680.23,97.14c-0.05,0.37-0.06,0.75-0.03,1.12c0.07,0.43,0.3,0.86,0.22,1.29c-0.09,0.52-0.6,0.98-0.41,1.47
				c0.07,0.21,0.25,0.35,0.33,0.55c0.19,0.49-0.3,0.97-0.41,1.49c-0.11,0.47,0.11,0.96,0.06,1.44s-0.39,0.99-0.22,1.46
				c-0.14-0.55-0.75-0.85-1.32-0.94c-0.94-0.13-1.9,0.12-2.64,0.71c0.29-0.63,0.43-1.31,0.42-2c-0.01-0.62-0.15-1.26,0.07-1.84
				c0.13-0.34,0.37-0.64,0.45-1c0.12-0.56-0.19-1.12-0.44-1.62c-0.32-0.61-0.59-1.31-0.43-1.98c0.15-0.62,0.66-1.09,1.19-1.46
				c0.41-0.32,0.9-0.54,1.41-0.64c0.33-0.05,1.4-0.36,1.57-0.22C680.4,95.25,680.26,96.74,680.23,97.14z"/>
		</g>
		<path class="st17" d="M421.04,98.95l12.35-11.37l-12.38,12.62l-0.03,1.31c-0.86-0.01-1.72-0.04-2.56-0.08l1.33-16.77l-0.01-0.13
			l0.02-0.02l0.13-1.58l-12.41-12.65l12.45,11.46l0.03,0.34l1.01-12.67l-10.62-13.07l10.75,10.85l1.05-26.27l0-0.09v0.09
			l-0.17,20.71l10.58-8.21l-10.62,10l-0.28,11.34l9.87-10.89l-9.92,12.56l-0.16,6.31l14.33-15.15l-14.39,17.35L421.04,98.95z"/>
		<path class="st17" d="M326.16,143.67l20.78-19.14l-20.83,21.25l-0.06,2.2c-1.45-0.02-2.89-0.07-4.32-0.13l2.24-28.22l-0.02-0.22
			l0.04-0.04l0.21-2.67l-20.89-21.3l20.95,19.3l0.05,0.57l1.69-21.33l-17.88-22.01l18.1,18.26l1.76-44.21l0.01-0.15v0.15
			l-0.29,34.86l17.8-13.82l-17.87,16.82l-0.47,19.09l16.62-18.32l-16.69,21.13l-0.26,10.61l24.13-25.5l-24.22,29.21L326.16,143.67z"
			/>
		<path class="st17" d="M382.68,114.96l15.75-14.5l-15.79,16.1l-0.04,1.67c-1.1-0.02-2.19-0.05-3.27-0.1l1.7-21.38l-0.01-0.17
			l0.03-0.03l0.16-2.02l-15.82-16.14L381.25,93l0.04,0.43l1.28-16.16L369.02,60.6l13.71,13.84l1.34-33.5l0.01-0.11v0.11l-0.22,26.42
			l13.49-10.47L383.8,69.63l-0.36,14.47l12.59-13.88l-12.65,16.01l-0.2,8.04l18.28-19.32l-18.35,22.13L382.68,114.96z"/>
		<g>
			<path class="st16" d="M825.1,127.57c0,35.13-20.73,47.39-46.31,47.39c-25.58,0-46.31-12.26-46.31-47.39s46.31-79.81,46.31-79.81
				S825.1,92.45,825.1,127.57z"/>
			<polygon class="st17" points="777.11,169.59 777.58,140.19 797.32,103.82 777.65,135.58 777.87,122.36 791.47,96.05 
				777.92,118.86 777.92,118.86 778.31,95.09 792.87,74.14 778.37,91.35 778.61,47.76 777.1,105.47 777.23,103.09 762.42,80.26 
				776.99,107.66 775.61,134.21 775.57,133.5 758.49,109.48 775.52,135.99 775.34,139.31 775.31,139.36 775.33,139.64 771.83,207 
				776.5,207 777.06,172.21 794.04,145.75 			"/>
		</g>
		<g>
			<path class="st24" d="M371.94,117.07c0.21,0.05,0.34,0.26,0.29,0.47l-0.31,1.3l0.06,0.02l-0.21,0.89l-0.06-0.02l-1.11,4.67
				c-0.08,0.33-0.39,0.55-0.73,0.52l-3.05-0.32c-0.03,0-0.06-0.01-0.09-0.02c-0.27-0.08-0.43-0.36-0.35-0.63l1.87-6.6
				c0.08-0.29,0.35-0.48,0.64-0.46l2.98,0.16l0,0C371.89,117.06,371.91,117.07,371.94,117.07z"/>
			<path class="st18" d="M369.48,117.28l1.57,0.09c0.06,0,0.11-0.03,0.13-0.09l0,0c0.02-0.06,0.08-0.1,0.15-0.1l0.33,0.02
				c0.02,0,0.04,0,0.05,0.01c0.17,0.04,0.27,0.21,0.23,0.37l-1.61,6.78c-0.04,0.17-0.21,0.29-0.38,0.27l-3.04-0.37
				c-0.01,0-0.03,0-0.04-0.01c-0.14-0.04-0.23-0.19-0.19-0.33l1.81-6.54c0.05-0.2,0.24-0.33,0.45-0.32l0.35,0.02
				C369.27,117.18,369.36,117.27,369.48,117.28z"/>
			<path class="st25" d="M349.11,122.86c-0.09,1.44-0.07,2.08,0.01,2.54c0.31,1.76,10.73-0.36,10.73-0.36s2.85,0.78,4.49-1.75
				c1.64-2.53-4.56-0.48-4.56-0.48l-8.32,0.42c0,0,1.8-9.35,1.91-11.45c0.07-1.27-1.23-1.31-2.26-1.14
				c-0.72,0.12-1.27,0.73-1.32,1.46L349.11,122.86z"/>
			<circle class="st25" cx="354.79" cy="104.35" r="4.1"/>
			<path class="st25" d="M357.39,106.85c-0.65,2.67,0.96,3.67,0.96,3.67l-5.9,1.03c0.87-1.43,0.02-4.48,0.02-4.48
				S358.04,104.18,357.39,106.85z"/>
			<path class="st25" d="M350.87,110.71c0.07-0.03,0.13-0.05,0.2-0.07c0.26-0.07,0.68-0.16,1.18-0.24c1.58-0.29,3.9-0.61,3.9-0.61
				l2.62,0.34c0,0,0.42,4.24,1.33,4.88s1.79,3.84,1.79,3.84l-9,4.29c-0.09-0.05-0.18-0.11-0.25-0.18c-0.27-0.25-0.77-0.85-1.43-2.2
				l0,0c-0.17-0.35-0.36-0.76-0.55-1.23C349.28,116.26,350.28,110.97,350.87,110.71z"/>
			<path class="st26" d="M356.33,120.07c-0.6-11.09,2.25-10.07,2.25-10.07s-1.57-0.51-2.25-0.09c-0.72,0.45-1.15,10.35-1.15,10.35
				L356.33,120.07z"/>
			<path class="st26" d="M351.07,110.64c0.26-0.07,0.68-0.16,1.18-0.24c0.35,2.55,0.39,9.38,0.39,12.57
				c-0.27-0.25-0.77-0.85-1.43-2.2l0,0C351.08,116.05,351.3,112.58,351.07,110.64z"/>
			<path class="st26" d="M361.67,121.69l1.05,2.37c2.96,1.4,3.65,6.24,3.65,6.24s13.82,30.52,14.18,34.46s-7.03,1.87-10.68,2.03
				s-6.66-22.5-6.66-22.5s2.57,20.18,2.93,23.15c0.36,2.98-4.71,1.86-9.56,1.59c-4.84-0.27,1.43-13.28,1.43-13.28
				s-1.12-3.64-0.48-5.51c0.63-1.87-0.85-5.77-0.85-5.77l-1.12-2.14c-0.9-1.71-1.5-3.56-1.75-5.47c-0.6-4.73,1.31-6.82,1.31-6.82
				l-0.38-2.17l-2.78-5.73c0.11-1.12,6.08-2.85,7.19-2.88c1.11-0.03,2.09-2.21,2.09-2.21C362.81,117.73,361.67,121.69,361.67,121.69
				z"/>
			<polygon class="st26" points="359.64,114.29 361.7,118.22 361.61,117.7 359.98,113.43 			"/>
			<path class="st26" d="M359.49,165.33c0,0-0.95,6.59-1.17,8c-0.22,1.41,10.38,0.83,11.27-1.87s-4.37-1.34-5.63-1.51
				c-1.26-0.17-1.61-4.35-1.61-4.35L359.49,165.33z"/>
			<path class="st26" d="M372.89,163.31c0,0-0.95,6.59-1.17,8c-0.22,1.41,10.38,0.83,11.27-1.87c0.89-2.7-4.37-1.34-5.63-1.51
				c-1.26-0.17-1.61-4.35-1.61-4.35L372.89,163.31z"/>
			<path class="st25" d="M356.17,122.11c-0.09,1.44,0.58,2.82,1.76,3.64c0.01,0.01,0.03,0.02,0.04,0.03
				c1.46,1.02,8.93-1.48,8.93-1.48s2.85,0.78,4.49-1.75c1.64-2.53-4.56-0.48-4.56-0.48l-7.04,0.91c0,0,0.52-9.84,0.63-11.94
				c0.07-1.27-1.23-1.31-2.26-1.14c-0.72,0.12-1.27,0.73-1.32,1.46L356.17,122.11z"/>
			<path class="st26" d="M348.13,106.57l0.62,3.56l0.81-0.14l-0.41-1.5l0.86,1.43l7.18-1.26l-0.46-1.65l0.94,1.57l1.12-0.2
				l-0.79-4.54c-0.62-3.57-3.22-6.1-5.8-5.65l0,0C349.23,98.71,347.41,102.46,348.13,106.57z"/>
			<path class="st26" d="M349.2,105.61l1.17,3.44l2.8-0.49l-0.45-1.51l1,1.41l1.47-0.26c-1.91-1.73-2.84-3.62-2.78-5.69l0.86-0.15
				l-0.23-0.75l0.5,0.7l4.38-0.77l0.02-0.94l0.28,0.89l0.74-0.13v0c-0.43-2.46-2.57-4.15-4.77-3.76l-0.11,0.02
				c-0.95,0.18-1.76,0.79-2.2,1.65C349.89,100.45,348.74,102.96,349.2,105.61z"/>
		</g>
		<path class="st17" d="M262.55,188.01l22.93-23.75l-22.84,26.21l0.09,2.57c-1.7,0.08-3.38,0.12-5.04,0.14l0.68-33.07l-0.04-0.25
			l0.04-0.05l0.06-3.12l-25.82-23.41l25.76,21.07l0.1,0.66l0.51-24.99l-22.36-24.44l22.36,20.06L258,73.94l0-0.18l0.01,0.17
			l2.05,40.68l19.81-17.34l-19.69,20.85l0.76,22.3l18.13-22.51l-18.02,25.79l0.42,12.4l26.39-31.4l-26.25,35.72L262.55,188.01z"/>
	</g>
</g>
<g id="Calque_2">
</g>
</svg>
